:SAMPLES-PER-SECOND 30
:FRAME-RANGE 1-1390
:FULLY-SPECIFIED
:DEGREES
87
root  48.2809 39.6125 -42.6409 3.31612 -77.0436 -1.35152
RightUpLeg  -9.3909 -6.61013 -1.34949
RightLeg  18.7998 -1.04599 -0.605396
RightFoot  -12.0793 -0.0638515 2.80122
RightToes  6.35937e-011 1.2921e-014 -6.02303e-014
Spine  -3.88284 -2.00539 1.67647
Spine1  7.91445 -1.18488 -3.78429
HEad  22.9621 -12.0564 0.0452102
LeftShoulder1  1.4261 -1.57866 -23.1798
LeftArm  3.59719 5.10146 -43.1858
LeftForeArm  40.0163 0.260467 -13.9441
LeftHand  -0.024182 5.26233 2.74258
RightShoulder  1.82033 2.28591 26.5528
RightArm  -11.8974 5.86459 61.1033
RightForeArm  76.4261 -1.20976 10.295
RightHand  0.341302 -9.1744 -11.4054
LeftUpLeg  -14.9722 3.72917 1.37497
LeftLeg  24.1634 11.9636 6.13764
LeftFoot  -6.54665 0.277368 -5.68538
LeftToes  4.52251e-011 4.07896e-011 -5.42348e-012
88
root  48.1638 39.5318 -42.2243 5.33716 -77.0213 -2.92227
RightUpLeg  -9.85394 -5.90968 -1.52471
RightLeg  19.3114 -1.72105 -0.867758
RightFoot  -12.278 -0.0585859 3.01623
RightToes  6.35937e-011 1.2921e-014 -6.02303e-014
Spine  -3.3693 -1.98771 2.64695
Spine1  7.16064 -1.29405 -3.31436
HEad  23.0094 -11.6438 -0.31159
LeftShoulder1  1.43663 -1.65359 -22.9384
LeftArm  5.0737 3.48452 -44.0707
LeftForeArm  40.5517 0.228395 -14.2369
LeftHand  -0.0270997 5.35855 2.63986
RightShoulder  1.79718 2.17997 26.7649
RightArm  -12.348 5.78074 60.1234
RightForeArm  76.1211 -1.89017 10.0648
RightHand  0.371204 -9.30092 -11.9049
LeftUpLeg  -17.7893 0.651804 2.00162
LeftLeg  28.7489 8.86789 5.57434
LeftFoot  -6.41864 0.271287 -5.41397
LeftToes  4.52251e-011 4.07896e-011 -5.42348e-012
89
root  48.0405 39.4868 -41.7837 6.89861 -77.036 -3.98845
RightUpLeg  -10.0617 -6.73612 -2.00336
RightLeg  19.3354 -0.805005 -0.4896
RightFoot  -12.4601 -0.0496562 3.56789
RightToes  6.35937e-011 1.2921e-014 -6.02303e-014
Spine  -3.24884 -1.72854 3.40947
Spine1  7.11809 -1.07533 -3.2321
HEad  22.694 -11.9634 -0.0655776
LeftShoulder1  1.5334 -2.03529 -22.667
LeftArm  5.8831 1.6375 -45.2889
LeftForeArm  40.6449 0.167314 -14.3918
LeftHand  -0.0275788 5.32627 2.8187
RightShoulder  1.82473 2.25999 26.7927
RightArm  -13.4019 5.82352 59.3896
RightForeArm  75.8962 -2.65199 9.506
RightHand  0.388379 -9.37442 -12.1752
LeftUpLeg  -19.3538 -4.54197 3.34125
LeftLeg  29.1484 3.30874 2.34036
LeftFoot  -7.66274 0.190212 -4.49143
LeftToes  4.52251e-011 4.07896e-011 -5.42348e-012
90
root  47.9205 39.4811 -41.319 7.56985 -77.9418 -4.28789
RightUpLeg  -10.2454 -6.06327 -2.71032
RightLeg  19.3017 -0.526653 -0.399178
RightFoot  -12.3837 -0.0471437 4.05079
RightToes  6.35937e-011 1.2921e-014 -6.02303e-014
Spine  -2.89205 -1.2212 3.83006
Spine1  6.96447 -0.474783 -3.64709
HEad  22.6195 -11.9642 0.713697
LeftShoulder1  1.57353 -2.26191 -22.1932
LeftArm  6.89242 0.073085 -46.6719
LeftForeArm  40.3226 -0.380309 -14.4927
LeftHand  -0.0128289 5.88509 4.23668
RightShoulder  1.92362 2.57863 26.7038
RightArm  -14.1315 6.61014 58.8821
RightForeArm  76.2352 -4.1305 8.98975
RightHand  0.375048 -9.29764 -12.0218
LeftUpLeg  -19.5408 -10.7427 4.97439
LeftLeg  26.2108 0.725103 0.726883
LeftFoot  -10.7887 0.084104 -4.03059
LeftToes  4.52251e-011 4.07896e-011 -5.42348e-012
91
root  47.8336 39.4299 -40.85 7.25569 -79.2019 -3.76225
RightUpLeg  -10.8258 -3.48145 -3.58511
RightLeg  20.1983 -1.71941 -0.91538
RightFoot  -12.5108 -0.0307199 5.30784
RightToes  6.35937e-011 1.2921e-014 -6.02303e-014
Spine  -2.53188 -0.962646 3.35764
Spine1  7.1516 -0.118557 -3.98037
HEad  22.5605 -11.3419 1.65457
LeftShoulder1  1.63124 -2.56626 -21.6822
LeftArm  8.99831 -0.921833 -47.7685
LeftForeArm  39.3774 -2.11858 -14.4732
LeftHand  -0.00820106 5.89909 4.32634
RightShoulder  2.00518 2.82283 26.7401
RightArm  -14.6415 8.35153 59.0191
RightForeArm  78.0487 -5.76727 8.36147
RightHand  0.403804 -9.65831 -11.8243
LeftUpLeg  -19.6626 -16.7462 6.34518
LeftLeg  23.4281 -0.378505 0.154657
LeftFoot  -11.6359 0.062958 -2.65125
LeftToes  4.52251e-011 4.07896e-011 -5.42348e-012
92
root  47.8048 39.1928 -40.3535 5.44994 -80.0635 -2.03009
RightUpLeg  -12.5282 -1.99748 -4.78091
RightLeg  23.9329 -2.202 -1.28927
RightFoot  -13.5621 0.0284393 6.21224
RightToes  6.35937e-011 1.2921e-014 -6.02303e-014
Spine  -1.89683 -1.20686 1.96236
Spine1  7.38745 -0.374826 -3.86675
HEad  22.6301 -9.99361 2.24519
LeftShoulder1  1.83575 -3.41286 -21.1993
LeftArm  11.177 -1.73857 -48.7007
LeftForeArm  38.2104 -3.64076 -14.4037
LeftHand  -0.00661749 5.88084 4.73078
RightShoulder  2.08696 3.09224 26.6436
RightArm  -14.0778 10.6677 59.2434
RightForeArm  78.7871 -5.75549 8.48472
RightHand  0.387968 -9.80535 -11.0666
LeftUpLeg  -20.1785 -19.4691 6.54318
LeftLeg  23.1577 -4.62964 -1.83511
LeftFoot  -9.86534 0.0909468 -2.46576
LeftToes  4.52251e-011 4.07896e-011 -5.42348e-012
93
root  47.8835 38.8804 -39.833 0.749573 -81.2671 2.23215
RightUpLeg  -15.5791 -0.71994 -6.59247
RightLeg  30.4273 -1.55058 -1.21839
RightFoot  -14.1883 0.105357 8.10738
RightToes  6.35937e-011 1.2921e-014 -6.02303e-014
Spine  -0.573379 -1.53724 -0.395782
Spine1  7.32675 -0.79456 -3.6164
HEad  23.2584 -7.93713 2.29571
LeftShoulder1  2.11414 -4.51741 -20.8835
LeftArm  14.8597 -3.12361 -49.616
LeftForeArm  36.1379 -4.64911 -14.6303
LeftHand  -0.011929 5.69552 5.09448
RightShoulder  2.13264 3.31516 26.2227
RightArm  -12.4521 13.3481 59.5618
RightForeArm  78.4436 -5.86558 9.0867
RightHand  0.381867 -9.92101 -10.6582
LeftUpLeg  -20.5896 -17.6098 4.65732
LeftLeg  25.5337 -5.35634 -2.44011
LeftFoot  -10.2313 0.0765352 -1.56238
LeftToes  4.52251e-011 4.07896e-011 -5.42348e-012
94
root  48.1003 38.5996 -39.2819 -5.28488 -82.7858 7.38062
RightUpLeg  -20.6005 0.167063 -8.75702
RightLeg  40.0988 0.778653 0.42975
RightFoot  -11.7669 -0.0399869 10.7842
RightToes  6.35937e-011 1.2921e-014 -6.02303e-014
Spine  1.79699 -1.82631 -2.75684
Spine1  7.00841 -1.33946 -2.9771
HEad  24.0386 -5.13044 2.09443
LeftShoulder1  2.37383 -5.32769 -21.3892
LeftArm  15.7694 -5.86582 -49.9344
LeftForeArm  36.9198 -3.93107 -14.9967
LeftHand  -0.00269486 5.85793 5.64674
RightShoulder  2.15529 3.40009 26.1514
RightArm  -10.9386 17.2114 59.9305
RightForeArm  77.4716 -5.87288 9.55251
RightHand  0.403097 -9.89293 -11.2381
LeftUpLeg  -20.9003 -15.9257 2.71829
LeftLeg  28.2222 -5.17717 -2.64972
LeftFoot  -10.7088 0.065648 -0.244779
LeftToes  4.52251e-011 4.07896e-011 -5.42348e-012
95
root  48.3277 38.4465 -38.6857 -4.8656 -85.4817 5.9549
RightUpLeg  -26.6459 1.59001 -9.72513
RightLeg  49.3061 2.40843 2.66326
RightFoot  -5.13726 -0.663109 11.5513
RightToes  6.35937e-011 1.2921e-014 -6.02303e-014
Spine  4.38973 -1.78382 -3.16972
Spine1  6.54379 -1.43311 -2.68326
HEad  24.7924 -1.62662 1.46959
LeftShoulder1  2.55373 -6.07183 -21.1092
LeftArm  13.6548 -8.82739 -50.8254
LeftForeArm  38.5332 -1.6422 -15.3607
LeftHand  0.00591348 6.02655 5.82263
RightShoulder  2.21904 3.84144 25.0151
RightArm  -10.1215 21.1273 61.6253
RightForeArm  76.4683 -5.63123 9.48205
RightHand  0.435682 -9.80146 -12.264
LeftUpLeg  -20.5642 -14.1219 1.98307
LeftLeg  29.9962 -4.34557 -2.34223
LeftFoot  -11.523 0.070054 0.543498
LeftToes  4.52251e-011 4.07896e-011 -5.42348e-012
96
root  48.537 38.3808 -38.1216 -24.4396 -88.8945 24.865
RightUpLeg  -32.7869 2.67027 -9.98609
RightLeg  55.9754 2.00334 2.78057
RightFoot  0.0257726 -0.915518 9.18186
RightToes  6.35937e-011 1.2921e-014 -6.02303e-014
Spine  6.06549 -1.59445 -3.63833
Spine1  6.47869 -1.13406 -2.99997
HEad  26.4527 2.09911 1.30257
LeftShoulder1  2.61793 -6.51956 -20.4809
LeftArm  13.7281 -11.8892 -51.1339
LeftForeArm  38.5685 -0.167668 -15.7076
LeftHand  0.00503824 6.0422 5.58902
RightShoulder  2.3623 4.52006 24.1201
RightArm  -8.68934 25.1267 63.7805
RightForeArm  76.4502 -5.19258 9.63488
RightHand  0.485508 -10.1665 -12.5427
LeftUpLeg  -19.938 -11.9026 0.994846
LeftLeg  30.5626 -3.20787 -1.67393
LeftFoot  -11.9724 0.0776996 1.05343
LeftToes  4.52251e-011 4.07896e-011 -5.42348e-012
97
root  48.7422 38.3638 -37.609 -177.588 -87.8033 177.554
RightUpLeg  -37.6429 2.51025 -9.34116
RightLeg  59.608 2.24132 3.66086
RightFoot  -1.45349 -0.787273 8.96843
RightToes  6.35937e-011 1.2921e-014 -6.02303e-014
Spine  7.43711 -1.43782 -3.24845
Spine1  6.38268 -0.67208 -3.83359
HEad  29.1146 5.40462 0.824704
LeftShoulder1  2.74379 -6.95815 -20.5749
LeftArm  15.4774 -15.3526 -50.3248
LeftForeArm  38.049 0.630662 -16.1368
LeftHand  0.00935715 6.1684 5.43955
RightShoulder  2.49302 5.15586 23.3652
RightArm  -7.52741 28.8743 66.0068
RightForeArm  76.4501 -5.05797 9.53978
RightHand  0.492581 -10.1244 -12.8103
LeftUpLeg  -19.5391 -9.88097 0.63298
LeftLeg  30.8731 -2.19499 -1.04228
LeftFoot  -12.2456 0.0853087 1.49044
LeftToes  4.52251e-011 4.07896e-011 -5.42348e-012
98
root  48.9135 38.4455 -37.1076 173.536 -84.7607 -173.87
RightUpLeg  -41.5661 1.05628 -7.31587
RightLeg  60.9507 2.52186 4.42282
RightFoot  -3.22094 -0.682957 9.2917
RightToes  6.35937e-011 1.2921e-014 -6.02303e-014
Spine  8.60816 -1.32462 -2.28552
Spine1  6.28407 -0.0900578 -4.99688
HEad  31.6988 8.08873 0.563039
LeftShoulder1  2.87887 -7.38999 -20.7713
LeftArm  14.3429 -18.7668 -49.2584
LeftForeArm  38.729 2.28389 -16.2318
LeftHand  0.0140053 6.28741 5.39647
RightShoulder  2.66583 6.01357 22.4661
RightArm  -6.13735 32.256 68.0999
RightForeArm  76.2191 -5.21845 9.57269
RightHand  0.508338 -10.1059 -13.2235
LeftUpLeg  -18.9502 -8.46133 0.653405
LeftLeg  30.4214 -0.8991 -0.195057
LeftFoot  -12.0671 0.0824335 1.57135
LeftToes  4.52251e-011 4.07896e-011 -5.42348e-012
